<svg xmlns="http://www.w3.org/2000/svg" viewBox="0 0 375.7 72.2"><defs><style>.cls-1{fill:#074b77;}.cls-2{fill:#0a639c;}</style></defs><title>Logo net-inout s.r.o.</title><g id="Vrstva_2" data-name="Vrstva 2"><g id="Vrstva_1-2" data-name="Vrstva 1"><path class="cls-1" d="M.1,18.4a68.13,68.13,0,0,1,8.7-1.8,65.9,65.9,0,0,1,11.1-.8,27.67,27.67,0,0,1,9.8,1.5,14.3,14.3,0,0,1,6.2,4.4,18.28,18.28,0,0,1,3.3,6.7,38.51,38.51,0,0,1,1,8.7V63.3H27V38.7c0-4.2-.6-7.2-1.7-9s-3.2-2.6-6.3-2.6c-.9,0-1.9,0-3,.1s-2,.2-2.8.3V63.3H0V18.4Z"/><path class="cls-1" d="M48.3,40.4a27.77,27.77,0,0,1,1.9-10.8,22.33,22.33,0,0,1,5-7.7,21,21,0,0,1,7.1-4.7,21.51,21.51,0,0,1,8.3-1.6q9.9,0,15.6,6c3.8,4,5.7,10,5.7,17.8a21.75,21.75,0,0,1-.1,2.5c-.1.9-.1,1.7-.2,2.4H61.8a8.64,8.64,0,0,0,3.8,6.4q3.3,2.4,9,2.4a33.53,33.53,0,0,0,7.1-.7,28.42,28.42,0,0,0,5.7-1.6l1.8,10.7a16.31,16.31,0,0,1-2.8,1.1,22.29,22.29,0,0,1-3.9.9c-1.4.3-3,.5-4.6.7a40.28,40.28,0,0,1-4.9.3,28,28,0,0,1-10.9-1.9,20,20,0,0,1-7.7-5.1,20.74,20.74,0,0,1-4.5-7.6A24.65,24.65,0,0,1,48.3,40.4Zm30.9-5a19.09,19.09,0,0,0-.6-3.3,6.9,6.9,0,0,0-1.5-2.8,7.53,7.53,0,0,0-2.6-2,8.55,8.55,0,0,0-3.8-.8,8.87,8.87,0,0,0-3.8.8,8.08,8.08,0,0,0-4.2,4.9,13.23,13.23,0,0,0-.8,3.3H79.2Z"/><path class="cls-1" d="M100.1,5.3l13.2-2.1V16.9h15.8v11H113.3V44.2a12.41,12.41,0,0,0,1.5,6.6c1,1.6,2.9,2.5,5.9,2.5a22.5,22.5,0,0,0,4.4-.4,22.18,22.18,0,0,0,4.1-1.1L131.1,62a55.24,55.24,0,0,1-5.3,1.7,29.18,29.18,0,0,1-7.2.7,22.62,22.62,0,0,1-8.9-1.5,14.2,14.2,0,0,1-5.7-4.1,15.4,15.4,0,0,1-3-6.3,35.11,35.11,0,0,1-.8-8.2V5.3Z"/><path class="cls-1" d="M133.7,31h25.6V42.9H133.7Z"/><path class="cls-1" d="M182.7,7.8a7.45,7.45,0,0,1-2.3,5.7,8.05,8.05,0,0,1-5.5,2.1,7.88,7.88,0,0,1-5.5-2.1,7.12,7.12,0,0,1-2.3-5.7,7.45,7.45,0,0,1,2.3-5.7A8.05,8.05,0,0,1,174.9,0a7.88,7.88,0,0,1,5.5,2.1A7.45,7.45,0,0,1,182.7,7.8Z"/><rect class="cls-1" x="168.3" y="16.9" width="13.2" height="46.4"/><path class="cls-1" d="M231.6,28.4a15.63,15.63,0,0,0-3.3-6.7,15.16,15.16,0,0,0-6.2-4.4,27.67,27.67,0,0,0-9.8-1.5,78.32,78.32,0,0,0-11.1.8q-5.25.9-8.7,1.8V40.6l13.2-13.2c.8-.1,1.8-.2,2.8-.3s2.1-.1,3-.1q4.65,0,6.3,2.7c1.1,1.8,1.7,4.8,1.7,9V63.3h13.2V37.1A44.88,44.88,0,0,0,231.6,28.4Z"/><path class="cls-1" d="M286.2,40a28.75,28.75,0,0,1-1.6,10,23.35,23.35,0,0,1-4.6,7.8,21.64,21.64,0,0,1-7.2,5,25.18,25.18,0,0,1-18.7,0,20.29,20.29,0,0,1-7.2-5,21.7,21.7,0,0,1-4.7-7.8,30.26,30.26,0,0,1,0-20,21.54,21.54,0,0,1,12-12.6,24.16,24.16,0,0,1,18.3,0,21.39,21.39,0,0,1,7.2,4.9,22.15,22.15,0,0,1,4.7,7.7A24.76,24.76,0,0,1,286.2,40Zm-13.4,0q0-6.15-2.4-9.6a7.93,7.93,0,0,0-6.9-3.5,8.23,8.23,0,0,0-7,3.5c-1.6,2.3-2.5,5.5-2.5,9.6s.8,7.3,2.5,9.7a8.08,8.08,0,0,0,7,3.6,7.79,7.79,0,0,0,6.9-3.6C272,47.3,272.8,44,272.8,40Z"/><path class="cls-1" d="M318.2,53c-1.1.1-2.1.1-3,.1-3.1,0-5.1-.9-6.3-2.8s-1.7-4.9-1.7-9.2V16.8H294V42.7a34.87,34.87,0,0,0,1,8.8,15.65,15.65,0,0,0,9.5,11.3,25.45,25.45,0,0,0,9.8,1.6,78.32,78.32,0,0,0,11.1-.8q5.25-.9,8.7-1.8V39.6L320.9,52.8C320.2,52.8,319.3,52.9,318.2,53Z"/><path class="cls-1" d="M344.8,5.3,358,3.2V16.9h15.8v11H357.9V44.2a12.41,12.41,0,0,0,1.5,6.6c1,1.6,2.9,2.5,5.9,2.5a22.5,22.5,0,0,0,4.4-.4,22.18,22.18,0,0,0,4.1-1.1L375.7,62a55.24,55.24,0,0,1-5.3,1.7,29.18,29.18,0,0,1-7.2.7,22.62,22.62,0,0,1-8.9-1.5,14.2,14.2,0,0,1-5.7-4.1,15.4,15.4,0,0,1-3-6.3,35.11,35.11,0,0,1-.8-8.2Z"/><path class="cls-2" d="M341.6,23.5,328.3,8.3a.75.75,0,0,0-1.2,0L313.8,23.5a.84.84,0,0,0,.6,1.4h6.8V47.2L334.4,34V24.9h6.7A.84.84,0,0,0,341.6,23.5Z"/><path class="cls-2" d="M212.4,55.3h-6.8V33L192.4,46.2v9.1h-6.8a.83.83,0,0,0-.6,1.4l13.3,15.2a.75.75,0,0,0,1.2,0l13.3-15.2C213.5,56.1,213.1,55.3,212.4,55.3Z"/></g></g></svg>