<svg version="1.1" xmlns="http://www.w3.org/2000/svg" xmlns:xlink="http://www.w3.org/1999/xlink" viewBox="0 0 172 172"><defs><linearGradient x1="105.55214" y1="50.89383" x2="157.5993" y2="102.93794" gradientUnits="userSpaceOnUse" id="color-1"><stop offset="0" stop-color="#fed100"></stop><stop offset="0.477" stop-color="#f2ad00"></stop><stop offset="1" stop-color="#e38101"></stop></linearGradient><linearGradient x1="100.16711" y1="71.84" x2="29.93025" y2="142.07686" gradientUnits="userSpaceOnUse" id="color-2"><stop offset="0" stop-color="#a34f27"></stop><stop offset="0.587" stop-color="#8b3817"></stop><stop offset="1" stop-color="#802d10"></stop></linearGradient><linearGradient x1="1938.06171" y1="785.90528" x2="2978.9967" y2="1826.77944" gradientUnits="userSpaceOnUse" id="color-3"><stop offset="0" stop-color="#fed100"></stop><stop offset="0.477" stop-color="#f2ad00"></stop><stop offset="1" stop-color="#e38101"></stop></linearGradient><linearGradient x1="379.29009" y1="390.67453" x2="454.15357" y2="465.54714" gradientUnits="userSpaceOnUse" id="color-4"><stop offset="0" stop-color="#fed100"></stop><stop offset="0.477" stop-color="#f2ad00"></stop><stop offset="1" stop-color="#e38101"></stop></linearGradient></defs><g fill="none" fill-rule="nonzero" stroke="none" stroke-width="1" stroke-linecap="butt" stroke-linejoin="miter" stroke-miterlimit="10" stroke-dasharray="" stroke-dashoffset="0" font-family="none" font-weight="none" font-size="none" text-anchor="none" style="mix-blend-mode: normal"><path d="M0,172v-172h172v172z" fill="none"></path><path d="M48.8136,166.84c-24.10922,0 -43.6536,-19.54438 -43.6536,-43.6536v-74.3728c0,-24.10922 19.54438,-43.6536 43.6536,-43.6536h74.3728c24.10922,0 43.6536,19.54438 43.6536,43.6536v74.3728c0,24.10922 -19.54438,43.6536 -43.6536,43.6536zM116.3064,159.96c24.10922,0 43.6536,-19.54438 43.6536,-43.6536v-60.6128c0,-24.10922 -19.54438,-43.6536 -43.6536,-43.6536h-60.6128c-24.10922,0 -43.6536,19.54438 -43.6536,43.6536v60.6128c0,24.10922 19.54438,43.6536 43.6536,43.6536z" fill="#000000"></path><g><path d="M133.60375,41.4487h-16.75207v67.00828c0,2.52325 2.0455,4.56875 4.56875,4.56875v0c2.52325,0 4.56875,-2.0455 4.56875,-4.56875v-19.7979c0,-1.68217 1.36366,-3.04583 3.04583,-3.04583v0c1.68217,0 3.04583,1.36366 3.04583,3.04583v9.13749c0,3.36433 2.72733,6.09166 6.09166,6.09166v0c3.36433,0 6.09166,-2.72733 6.09166,-6.09166v-56.34787z" fill="url(#color-1)"></path><path d="M110.4742,67.86864l-3.16806,-3.16806l-3.19364,-3.19343l-75.45884,69.17322l0.0502,0.05985c-0.19892,0.16712 -0.41423,0.30413 -0.6014,0.49132c-3.49473,3.5002 -3.49254,9.17003 0.0049,12.66752c3.49744,3.4975 9.16726,3.49979 12.66752,0.00511c0.18796,-0.18796 0.32572,-0.40397 0.49342,-0.60381l0.03253,0.02741z" fill="url(#color-2)"></path><ellipse cx="12.89076" cy="39.93242" transform="rotate(-45) scale(3.04583,3.04583) skewX(0)" rx="10.607" ry="7" fill="#f09801"></ellipse><path d="M97.05378,88.65908c-1.21196,0.00145 -2.37451,-0.48026 -3.23026,-1.33849l-9.13749,-9.13749c-1.78402,-1.78402 -1.78402,-4.67649 0,-6.46051c1.78402,-1.78402 4.67649,-1.78402 6.46051,0l9.13749,9.13749c1.30637,1.30664 1.69712,3.2715 0.99008,4.97855c-0.70704,1.70705 -2.37266,2.82018 -4.22034,2.82045zM118.55902,84.27476c0.857,-0.85657 1.33849,-2.01858 1.33849,-3.23026c0,-1.21167 -0.48149,-2.37369 -1.33849,-3.23026l-24.36665,-24.36665c-1.78402,-1.78402 -4.67649,-1.78402 -6.46051,0c-1.78402,1.78402 -1.78402,4.67649 0,6.46051l24.36665,24.36665c0.85657,0.857 2.01858,1.33849 3.23026,1.33849c1.21167,0 2.37369,-0.48149 3.23026,-1.33849zM139.87984,62.95395c0.857,-0.85657 1.33849,-2.01858 1.33849,-3.23026c0,-1.21167 -0.48149,-2.37369 -1.33849,-3.23026l-24.36665,-24.36665c-1.78402,-1.78402 -4.67649,-1.78402 -6.46051,0c-1.78402,1.78402 -1.78402,4.67649 0,6.46051l24.36665,24.36665c0.85657,0.857 2.01858,1.33849 3.23026,1.33849c1.21167,0 2.37369,-0.48149 3.23026,-1.33849zM142.92567,44.67896c0.857,-0.85657 1.33849,-2.01858 1.33849,-3.23026c0,-1.21167 -0.48149,-2.37369 -1.33849,-3.23026l-9.13749,-9.13749c-1.78402,-1.78402 -4.67649,-1.78402 -6.46051,0c-1.78402,1.78402 -1.78402,4.67649 0,6.46051l9.13749,9.13749c0.85657,0.857 2.01858,1.33849 3.23026,1.33849c1.21167,0 2.37369,-0.48149 3.23026,-1.33849zM132.11355,76.50847c0.85701,-0.85656 1.33851,-2.01857 1.33851,-3.23024c0,-1.21167 -0.4815,-2.37368 -1.33851,-3.23024l-30.15491,-30.15491c-1.78503,-1.77805 -4.67261,-1.77522 -6.45416,0.00632c-1.78155,1.78155 -1.78437,4.66913 -0.00632,6.45416l30.15491,30.15491c0.85655,0.85702 2.01856,1.33852 3.23024,1.33852c1.21168,0 2.37369,-0.48151 3.23024,-1.33852z" fill="url(#color-3)"></path><circle cx="39.86463" cy="40.60834" transform="scale(3.04583,3.04583)" r="1.5" fill="url(#color-4)"></circle></g><path d="M44.0664,165.12c-20.53748,0 -37.1864,-16.64892 -37.1864,-37.1864v-83.8672c0,-20.53748 16.64892,-37.1864 37.1864,-37.1864h83.8672c20.53748,0 37.1864,16.64892 37.1864,37.1864v83.8672c0,20.53748 -16.64892,37.1864 -37.1864,37.1864z" fill="none"></path><path d="M47.5064,161.68c-20.53748,0 -37.1864,-16.64892 -37.1864,-37.1864v-76.9872c0,-20.53748 16.64892,-37.1864 37.1864,-37.1864h76.9872c20.53748,0 37.1864,16.64892 37.1864,37.1864v76.9872c0,20.53748 -16.64892,37.1864 -37.1864,37.1864z" fill="none"></path><path d="M44.0664,165.12c-20.53748,0 -37.1864,-16.64892 -37.1864,-37.1864v-83.8672c0,-20.53748 16.64892,-37.1864 37.1864,-37.1864h83.8672c20.53748,0 37.1864,16.64892 37.1864,37.1864v83.8672c0,20.53748 -16.64892,37.1864 -37.1864,37.1864z" fill="none"></path><path d="M50.9464,158.24c-20.53748,0 -37.1864,-16.64892 -37.1864,-37.1864v-70.1072c0,-20.53748 16.64892,-37.1864 37.1864,-37.1864h70.1072c20.53748,0 37.1864,16.64892 37.1864,37.1864v70.1072c0,20.53748 -16.64892,37.1864 -37.1864,37.1864z" fill="none"></path><path d="M44.0664,165.12c-20.53748,0 -37.1864,-16.64892 -37.1864,-37.1864v-83.8672c0,-20.53748 16.64892,-37.1864 37.1864,-37.1864h83.8672c20.53748,0 37.1864,16.64892 37.1864,37.1864v83.8672c0,20.53748 -16.64892,37.1864 -37.1864,37.1864z" fill="none"></path><path d="M54.3864,154.8c-20.53748,0 -37.1864,-16.64892 -37.1864,-37.1864v-63.2272c0,-20.53748 16.64892,-37.1864 37.1864,-37.1864h63.2272c20.53748,0 37.1864,16.64892 37.1864,37.1864v63.2272c0,20.53748 -16.64892,37.1864 -37.1864,37.1864z" fill="none"></path><path d="M44.0664,165.12c-20.53748,0 -37.1864,-16.64892 -37.1864,-37.1864v-83.8672c0,-20.53748 16.64892,-37.1864 37.1864,-37.1864h83.8672c20.53748,0 37.1864,16.64892 37.1864,37.1864v83.8672c0,20.53748 -16.64892,37.1864 -37.1864,37.1864z" fill="none"></path><path d="M50.9464,158.24c-20.53748,0 -37.1864,-16.64892 -37.1864,-37.1864v-70.1072c0,-20.53748 16.64892,-37.1864 37.1864,-37.1864h70.1072c20.53748,0 37.1864,16.64892 37.1864,37.1864v70.1072c0,20.53748 -16.64892,37.1864 -37.1864,37.1864z" fill="none"></path><path d="M44.0664,165.12c-20.53748,0 -37.1864,-16.64892 -37.1864,-37.1864v-83.8672c0,-20.53748 16.64892,-37.1864 37.1864,-37.1864h83.8672c20.53748,0 37.1864,16.64892 37.1864,37.1864v83.8672c0,20.53748 -16.64892,37.1864 -37.1864,37.1864z" fill="none"></path><path d="M47.5064,161.68c-20.53748,0 -37.1864,-16.64892 -37.1864,-37.1864v-76.9872c0,-20.53748 16.64892,-37.1864 37.1864,-37.1864h76.9872c20.53748,0 37.1864,16.64892 37.1864,37.1864v76.9872c0,20.53748 -16.64892,37.1864 -37.1864,37.1864z" fill="none"></path><path d="M44.0664,165.12c-20.53748,0 -37.1864,-16.64892 -37.1864,-37.1864v-83.8672c0,-20.53748 16.64892,-37.1864 37.1864,-37.1864h83.8672c20.53748,0 37.1864,16.64892 37.1864,37.1864v83.8672c0,20.53748 -16.64892,37.1864 -37.1864,37.1864z" fill="none"></path><path d="M50.9464,158.24c-20.53748,0 -37.1864,-16.64892 -37.1864,-37.1864v-70.1072c0,-20.53748 16.64892,-37.1864 37.1864,-37.1864h70.1072c20.53748,0 37.1864,16.64892 37.1864,37.1864v70.1072c0,20.53748 -16.64892,37.1864 -37.1864,37.1864z" fill="none"></path><path d="M47.2312,165.12c-22.28535,0 -40.3512,-18.06585 -40.3512,-40.3512v-77.5376c0,-22.28535 18.06585,-40.3512 40.3512,-40.3512h77.5376c22.28535,0 40.3512,18.06585 40.3512,40.3512v77.5376c0,22.28535 -18.06585,40.3512 -40.3512,40.3512z" fill="none"></path><path d="M54.1112,158.24c-22.28535,0 -40.3512,-18.06585 -40.3512,-40.3512v-63.7776c0,-22.28535 18.06585,-40.3512 40.3512,-40.3512h63.7776c22.28535,0 40.3512,18.06585 40.3512,40.3512v63.7776c0,22.28535 -18.06585,40.3512 -40.3512,40.3512z" fill="none"></path><path d="M48.0224,165.12c-22.72232,0 -41.1424,-18.42008 -41.1424,-41.1424v-75.9552c0,-22.72232 18.42008,-41.1424 41.1424,-41.1424h75.9552c22.72232,0 41.1424,18.42008 41.1424,41.1424v75.9552c0,22.72232 -18.42008,41.1424 -41.1424,41.1424z" fill="none"></path><path d="M54.9024,158.24c-22.72232,0 -41.1424,-18.42008 -41.1424,-41.1424v-62.1952c0,-22.72232 18.42008,-41.1424 41.1424,-41.1424h62.1952c22.72232,0 41.1424,18.42008 41.1424,41.1424v62.1952c0,22.72232 -18.42008,41.1424 -41.1424,41.1424z" fill="none"></path><path d="M47.2312,165.12c-22.28535,0 -40.3512,-18.06585 -40.3512,-40.3512v-77.5376c0,-22.28535 18.06585,-40.3512 40.3512,-40.3512h77.5376c22.28535,0 40.3512,18.06585 40.3512,40.3512v77.5376c0,22.28535 -18.06585,40.3512 -40.3512,40.3512z" fill="none"></path><path d="M54.1112,158.24c-22.28535,0 -40.3512,-18.06585 -40.3512,-40.3512v-63.7776c0,-22.28535 18.06585,-40.3512 40.3512,-40.3512h63.7776c22.28535,0 40.3512,18.06585 40.3512,40.3512v63.7776c0,22.28535 -18.06585,40.3512 -40.3512,40.3512z" fill="none"></path><path d="M48.0224,165.12c-22.72232,0 -41.1424,-18.42008 -41.1424,-41.1424v-75.9552c0,-22.72232 18.42008,-41.1424 41.1424,-41.1424h75.9552c22.72232,0 41.1424,18.42008 41.1424,41.1424v75.9552c0,22.72232 -18.42008,41.1424 -41.1424,41.1424z" fill="none"></path><path d="M54.9024,158.24c-22.72232,0 -41.1424,-18.42008 -41.1424,-41.1424v-62.1952c0,-22.72232 18.42008,-41.1424 41.1424,-41.1424h62.1952c22.72232,0 41.1424,18.42008 41.1424,41.1424v62.1952c0,22.72232 -18.42008,41.1424 -41.1424,41.1424z" fill="none"></path><path d="M48.8136,165.12c-23.15929,0 -41.9336,-18.77431 -41.9336,-41.9336v-74.3728c0,-23.15929 18.77431,-41.9336 41.9336,-41.9336h74.3728c23.15929,0 41.9336,18.77431 41.9336,41.9336v74.3728c0,23.15929 -18.77431,41.9336 -41.9336,41.9336z" fill="none"></path><path d="M55.6936,158.24c-23.15929,0 -41.9336,-18.77431 -41.9336,-41.9336v-60.6128c0,-23.15929 18.77431,-41.9336 41.9336,-41.9336h60.6128c23.15929,0 41.9336,18.77431 41.9336,41.9336v60.6128c0,23.15929 -18.77431,41.9336 -41.9336,41.9336z" fill="none"></path><path d="M49.6048,165.12c-23.59626,0 -42.7248,-19.12854 -42.7248,-42.7248v-72.7904c0,-23.59626 19.12854,-42.7248 42.7248,-42.7248h72.7904c23.59626,0 42.7248,19.12854 42.7248,42.7248v72.7904c0,23.59626 -19.12854,42.7248 -42.7248,42.7248z" fill="none"></path><path d="M56.4848,158.24c-23.59626,0 -42.7248,-19.12854 -42.7248,-42.7248v-59.0304c0,-23.59626 19.12854,-42.7248 42.7248,-42.7248h59.0304c23.59626,0 42.7248,19.12854 42.7248,42.7248v59.0304c0,23.59626 -19.12854,42.7248 -42.7248,42.7248z" fill="none"></path><path d="M47.6268,169.42c-24.87866,0 -45.0468,-20.16814 -45.0468,-45.0468v-76.7464c0,-24.87866 20.16814,-45.0468 45.0468,-45.0468h76.7464c24.87866,0 45.0468,20.16814 45.0468,45.0468v76.7464c0,24.87866 -20.16814,45.0468 -45.0468,45.0468z" fill="none"></path><path d="M54.5068,162.54c-24.87866,0 -45.0468,-20.16814 -45.0468,-45.0468v-62.9864c0,-24.87866 20.16814,-45.0468 45.0468,-45.0468h62.9864c24.87866,0 45.0468,20.16814 45.0468,45.0468v62.9864c0,24.87866 -20.16814,45.0468 -45.0468,45.0468z" fill="none"></path><path d="M48.0224,168.56c-24.62218,0 -44.5824,-19.96022 -44.5824,-44.5824v-75.9552c0,-24.62218 19.96022,-44.5824 44.5824,-44.5824h75.9552c24.62218,0 44.5824,19.96022 44.5824,44.5824v75.9552c0,24.62218 -19.96022,44.5824 -44.5824,44.5824z" fill="none"></path><path d="M54.9024,161.68c-24.62218,0 -44.5824,-19.96022 -44.5824,-44.5824v-62.1952c0,-24.62218 19.96022,-44.5824 44.5824,-44.5824h62.1952c24.62218,0 44.5824,19.96022 44.5824,44.5824v62.1952c0,24.62218 -19.96022,44.5824 -44.5824,44.5824z" fill="none"></path><path d="M48.418,167.7c-24.3657,0 -44.118,-19.7523 -44.118,-44.118v-75.164c0,-24.3657 19.7523,-44.118 44.118,-44.118h75.164c24.3657,0 44.118,19.7523 44.118,44.118v75.164c0,24.3657 -19.7523,44.118 -44.118,44.118z" fill="none"></path><path d="M55.298,160.82c-24.3657,0 -44.118,-19.7523 -44.118,-44.118v-61.404c0,-24.3657 19.7523,-44.118 44.118,-44.118h61.404c24.3657,0 44.118,19.7523 44.118,44.118v61.404c0,24.3657 -19.7523,44.118 -44.118,44.118z" fill="none"></path><path d="M48.8136,166.84c-24.10922,0 -43.6536,-19.54438 -43.6536,-43.6536v-74.3728c0,-24.10922 19.54438,-43.6536 43.6536,-43.6536h74.3728c24.10922,0 43.6536,19.54438 43.6536,43.6536v74.3728c0,24.10922 -19.54438,43.6536 -43.6536,43.6536z" fill="none"></path><path d="M55.6936,159.96c-24.10922,0 -43.6536,-19.54438 -43.6536,-43.6536v-60.6128c0,-24.10922 19.54438,-43.6536 43.6536,-43.6536h60.6128c24.10922,0 43.6536,19.54438 43.6536,43.6536v60.6128c0,24.10922 -19.54438,43.6536 -43.6536,43.6536z" fill="none"></path><path d="M49.2092,165.98c-23.85274,0 -43.1892,-19.33646 -43.1892,-43.1892v-73.5816c0,-23.85274 19.33646,-43.1892 43.1892,-43.1892h73.5816c23.85274,0 43.1892,19.33646 43.1892,43.1892v73.5816c0,23.85274 -19.33646,43.1892 -43.1892,43.1892z" fill="none"></path><path d="M56.0892,159.1c-23.85274,0 -43.1892,-19.33646 -43.1892,-43.1892v-59.8216c0,-23.85274 19.33646,-43.1892 43.1892,-43.1892h59.8216c23.85274,0 43.1892,19.33646 43.1892,43.1892v59.8216c0,23.85274 -19.33646,43.1892 -43.1892,43.1892z" fill="none"></path><path d="M49.6048,165.12c-23.59626,0 -42.7248,-19.12854 -42.7248,-42.7248v-72.7904c0,-23.59626 19.12854,-42.7248 42.7248,-42.7248h72.7904c23.59626,0 42.7248,19.12854 42.7248,42.7248v72.7904c0,23.59626 -19.12854,42.7248 -42.7248,42.7248z" fill="none"></path><path d="M56.4848,158.24c-23.59626,0 -42.7248,-19.12854 -42.7248,-42.7248v-59.0304c0,-23.59626 19.12854,-42.7248 42.7248,-42.7248h59.0304c23.59626,0 42.7248,19.12854 42.7248,42.7248v59.0304c0,23.59626 -19.12854,42.7248 -42.7248,42.7248z" fill="none"></path><path d="M50.0004,164.26c-23.33977,0 -42.2604,-18.92063 -42.2604,-42.2604v-71.9992c0,-23.33977 18.92063,-42.2604 42.2604,-42.2604h71.9992c23.33977,0 42.2604,18.92063 42.2604,42.2604v71.9992c0,23.33977 -18.92063,42.2604 -42.2604,42.2604z" fill="none"></path><path d="M56.8804,157.38c-23.33977,0 -42.2604,-18.92063 -42.2604,-42.2604v-58.2392c0,-23.33977 18.92063,-42.2604 42.2604,-42.2604h58.2392c23.33977,0 42.2604,18.92063 42.2604,42.2604v58.2392c0,23.33977 -18.92063,42.2604 -42.2604,42.2604z" fill="none"></path><path d="M49.6048,165.12c-23.59626,0 -42.7248,-19.12854 -42.7248,-42.7248v-72.7904c0,-23.59626 19.12854,-42.7248 42.7248,-42.7248h72.7904c23.59626,0 42.7248,19.12854 42.7248,42.7248v72.7904c0,23.59626 -19.12854,42.7248 -42.7248,42.7248z" fill="none"></path><path d="M56.4848,158.24c-23.59626,0 -42.7248,-19.12854 -42.7248,-42.7248v-59.0304c0,-23.59626 19.12854,-42.7248 42.7248,-42.7248h59.0304c23.59626,0 42.7248,19.12854 42.7248,42.7248v59.0304c0,23.59626 -19.12854,42.7248 -42.7248,42.7248z" fill="none"></path><path d="M49.2092,165.98c-23.85274,0 -43.1892,-19.33646 -43.1892,-43.1892v-73.5816c0,-23.85274 19.33646,-43.1892 43.1892,-43.1892h73.5816c23.85274,0 43.1892,19.33646 43.1892,43.1892v73.5816c0,23.85274 -19.33646,43.1892 -43.1892,43.1892z" fill="none"></path><path d="M56.0892,159.1c-23.85274,0 -43.1892,-19.33646 -43.1892,-43.1892v-59.8216c0,-23.85274 19.33646,-43.1892 43.1892,-43.1892h59.8216c23.85274,0 43.1892,19.33646 43.1892,43.1892v59.8216c0,23.85274 -19.33646,43.1892 -43.1892,43.1892z" fill="none"></path><path d="M48.8136,166.84c-24.10922,0 -43.6536,-19.54438 -43.6536,-43.6536v-74.3728c0,-24.10922 19.54438,-43.6536 43.6536,-43.6536h74.3728c24.10922,0 43.6536,19.54438 43.6536,43.6536v74.3728c0,24.10922 -19.54438,43.6536 -43.6536,43.6536z" fill="none"></path><path d="M55.6936,159.96c-24.10922,0 -43.6536,-19.54438 -43.6536,-43.6536v-60.6128c0,-24.10922 19.54438,-43.6536 43.6536,-43.6536h60.6128c24.10922,0 43.6536,19.54438 43.6536,43.6536v60.6128c0,24.10922 -19.54438,43.6536 -43.6536,43.6536z" fill="none"></path><path d="M48.8136,166.84c-24.10922,0 -43.6536,-19.54438 -43.6536,-43.6536v-74.3728c0,-24.10922 19.54438,-43.6536 43.6536,-43.6536h74.3728c24.10922,0 43.6536,19.54438 43.6536,43.6536v74.3728c0,24.10922 -19.54438,43.6536 -43.6536,43.6536z" fill="none"></path><path d="M55.6936,159.96c-24.10922,0 -43.6536,-19.54438 -43.6536,-43.6536v-60.6128c0,-24.10922 19.54438,-43.6536 43.6536,-43.6536h60.6128c24.10922,0 43.6536,19.54438 43.6536,43.6536v60.6128c0,24.10922 -19.54438,43.6536 -43.6536,43.6536z" fill="none"></path><path d="M48.8136,166.84c-24.10922,0 -43.6536,-19.54438 -43.6536,-43.6536v-74.3728c0,-24.10922 19.54438,-43.6536 43.6536,-43.6536h74.3728c24.10922,0 43.6536,19.54438 43.6536,43.6536v74.3728c0,24.10922 -19.54438,43.6536 -43.6536,43.6536z" fill="none"></path><path d="M55.6936,159.96c-24.10922,0 -43.6536,-19.54438 -43.6536,-43.6536v-60.6128c0,-24.10922 19.54438,-43.6536 43.6536,-43.6536h60.6128c24.10922,0 43.6536,19.54438 43.6536,43.6536v60.6128c0,24.10922 -19.54438,43.6536 -43.6536,43.6536z" fill="none"></path><path d="M48.8136,166.84c-24.10922,0 -43.6536,-19.54438 -43.6536,-43.6536v-74.3728c0,-24.10922 19.54438,-43.6536 43.6536,-43.6536h74.3728c24.10922,0 43.6536,19.54438 43.6536,43.6536v74.3728c0,24.10922 -19.54438,43.6536 -43.6536,43.6536z" fill="none"></path><path d="M55.6936,159.96c-24.10922,0 -43.6536,-19.54438 -43.6536,-43.6536v-60.6128c0,-24.10922 19.54438,-43.6536 43.6536,-43.6536h60.6128c24.10922,0 43.6536,19.54438 43.6536,43.6536v60.6128c0,24.10922 -19.54438,43.6536 -43.6536,43.6536z" fill="none"></path></g></svg>