<svg version="1.1" xmlns="http://www.w3.org/2000/svg" xmlns:xlink="http://www.w3.org/1999/xlink" viewBox="0 0 172 172"><defs><linearGradient x1="102.55794" y1="56.63407" x2="145.42026" y2="99.49387" gradientUnits="userSpaceOnUse" id="color-1"><stop offset="0" stop-color="#fed100"></stop><stop offset="0.477" stop-color="#f2ad00"></stop><stop offset="1" stop-color="#e38101"></stop></linearGradient><linearGradient x1="98.12322" y1="73.88384" x2="40.28117" y2="131.72589" gradientUnits="userSpaceOnUse" id="color-2"><stop offset="0" stop-color="#a34f27"></stop><stop offset="0.587" stop-color="#8b3817"></stop><stop offset="1" stop-color="#802d10"></stop></linearGradient><linearGradient x1="1611.68168" y1="661.9369" x2="2468.92125" y2="1519.12637" gradientUnits="userSpaceOnUse" id="color-3"><stop offset="0" stop-color="#fed100"></stop><stop offset="0.477" stop-color="#f2ad00"></stop><stop offset="1" stop-color="#e38101"></stop></linearGradient><linearGradient x1="327.98893" y1="336.45314" x2="389.64113" y2="398.11286" gradientUnits="userSpaceOnUse" id="color-4"><stop offset="0" stop-color="#fed100"></stop><stop offset="0.477" stop-color="#f2ad00"></stop><stop offset="1" stop-color="#e38101"></stop></linearGradient></defs><g fill="none" fill-rule="nonzero" stroke="none" stroke-width="1" stroke-linecap="butt" stroke-linejoin="miter" stroke-miterlimit="10" stroke-dasharray="" stroke-dashoffset="0" font-family="none" font-weight="none" font-size="none" text-anchor="none" style="mix-blend-mode: normal"><path d="M0,172v-172h172v172z" fill="none"></path><path d="M8.6,86c0,-42.74684 34.65316,-77.4 77.4,-77.4c42.74684,0 77.4,34.65316 77.4,77.4c0,42.74684 -34.65316,77.4 -77.4,77.4c-42.74684,0 -77.4,-34.65316 -77.4,-77.4zM86,156.52c38.94712,0 70.52,-31.57288 70.52,-70.52c0,-38.94712 -31.57288,-70.52 -70.52,-70.52c-38.94712,0 -70.52,31.57288 -70.52,70.52c0,38.94712 31.57288,70.52 70.52,70.52z" fill="#000000"></path><g><path d="M125.65925,48.85574h-13.79581v55.18322c0,2.07797 1.68453,3.76249 3.76249,3.76249v0c2.07797,0 3.76249,-1.68453 3.76249,-3.76249v-16.30413c0,-1.38531 1.12302,-2.50833 2.50833,-2.50833v0c1.38531,0 2.50833,1.12302 2.50833,2.50833v7.52498c0,2.77062 2.24603,5.01666 5.01666,5.01666v0c2.77062,0 5.01666,-2.24603 5.01666,-5.01666v-46.40407z" fill="url(#color-1)"></path><path d="M106.6114,70.61331l-2.60899,-2.60899l-2.63006,-2.62988l-62.1425,56.96612l0.04134,0.04929c-0.16382,0.13763 -0.34113,0.25046 -0.49527,0.40462c-2.87801,2.88252 -2.8762,7.55178 0.00404,10.43206c2.88024,2.88029 7.5495,2.88217 10.43206,0.00421c0.15479,-0.15479 0.26824,-0.33268 0.40635,-0.49725l0.02679,0.02257z" fill="url(#color-2)"></path><ellipse cx="13.14763" cy="48.48941" transform="rotate(-45) scale(2.50833,2.50833) skewX(0)" rx="10.607" ry="7" fill="#f09801"></ellipse><path d="M95.55931,87.73483c-0.99809,0.0012 -1.95548,-0.39551 -2.66021,-1.10228l-7.52498,-7.52498c-1.46919,-1.46919 -1.46919,-3.85122 0,-5.32042c1.46919,-1.46919 3.85122,-1.46919 5.32042,0l7.52498,7.52498c1.07583,1.07606 1.39763,2.69418 0.81536,4.09998c-0.58227,1.4058 -1.95395,2.3225 -3.47557,2.32272zM113.26948,84.12422c0.70576,-0.70541 1.10228,-1.66236 1.10228,-2.66021c0,-0.99785 -0.39652,-1.9548 -1.10228,-2.66021l-20.06663,-20.06663c-1.46919,-1.46919 -3.85122,-1.46919 -5.32042,0c-1.46919,1.46919 -1.46919,3.85122 0,5.32042l20.06663,20.06663c0.70541,0.70576 1.66236,1.10228 2.66021,1.10228c0.99785,0 1.9548,-0.39652 2.66021,-1.10228zM130.82778,66.56592c0.70576,-0.70541 1.10228,-1.66236 1.10228,-2.66021c0,-0.99785 -0.39652,-1.9548 -1.10228,-2.66021l-20.06663,-20.06663c-1.46919,-1.46919 -3.85122,-1.46919 -5.32042,0c-1.46919,1.46919 -1.46919,3.85122 0,5.32042l20.06663,20.06663c0.70541,0.70576 1.66236,1.10228 2.66021,1.10228c0.99785,0 1.9548,-0.39652 2.66021,-1.10228zM133.33611,51.51595c0.70576,-0.70541 1.10228,-1.66236 1.10228,-2.66021c0,-0.99785 -0.39652,-1.9548 -1.10228,-2.66021l-7.52498,-7.52498c-1.46919,-1.46919 -3.85122,-1.46919 -5.32042,0c-1.46919,1.46919 -1.46919,3.85122 0,5.32042l7.52498,7.52498c0.70541,0.70576 1.66236,1.10228 2.66021,1.10228c0.99785,0 1.9548,-0.39652 2.66021,-1.10228zM124.43202,77.72846c0.70577,-0.7054 1.1023,-1.66235 1.1023,-2.6602c0,-0.99785 -0.39653,-1.9548 -1.1023,-2.6602l-24.83343,-24.83343c-1.47002,-1.46428 -3.84803,-1.46195 -5.31518,0.00521c-1.46715,1.46715 -1.46948,3.84516 -0.00521,5.31518l24.83343,24.83343c0.70539,0.70578 1.66235,1.10231 2.6602,1.10231c0.99785,0 1.9548,-0.39653 2.6602,-1.10231z" fill="url(#color-3)"></path><circle cx="46.09697" cy="46.47741" transform="scale(2.50833,2.50833)" r="1.5" fill="url(#color-4)"></circle></g><path d="M44.0664,165.12c-20.53748,0 -37.1864,-16.64892 -37.1864,-37.1864v-83.8672c0,-20.53748 16.64892,-37.1864 37.1864,-37.1864h83.8672c20.53748,0 37.1864,16.64892 37.1864,37.1864v83.8672c0,20.53748 -16.64892,37.1864 -37.1864,37.1864z" fill="none"></path><path d="M47.5064,161.68c-20.53748,0 -37.1864,-16.64892 -37.1864,-37.1864v-76.9872c0,-20.53748 16.64892,-37.1864 37.1864,-37.1864h76.9872c20.53748,0 37.1864,16.64892 37.1864,37.1864v76.9872c0,20.53748 -16.64892,37.1864 -37.1864,37.1864z" fill="none"></path><path d="M44.0664,165.12c-20.53748,0 -37.1864,-16.64892 -37.1864,-37.1864v-83.8672c0,-20.53748 16.64892,-37.1864 37.1864,-37.1864h83.8672c20.53748,0 37.1864,16.64892 37.1864,37.1864v83.8672c0,20.53748 -16.64892,37.1864 -37.1864,37.1864z" fill="none"></path><path d="M50.9464,158.24c-20.53748,0 -37.1864,-16.64892 -37.1864,-37.1864v-70.1072c0,-20.53748 16.64892,-37.1864 37.1864,-37.1864h70.1072c20.53748,0 37.1864,16.64892 37.1864,37.1864v70.1072c0,20.53748 -16.64892,37.1864 -37.1864,37.1864z" fill="none"></path><path d="M44.0664,165.12c-20.53748,0 -37.1864,-16.64892 -37.1864,-37.1864v-83.8672c0,-20.53748 16.64892,-37.1864 37.1864,-37.1864h83.8672c20.53748,0 37.1864,16.64892 37.1864,37.1864v83.8672c0,20.53748 -16.64892,37.1864 -37.1864,37.1864z" fill="none"></path><path d="M54.3864,154.8c-20.53748,0 -37.1864,-16.64892 -37.1864,-37.1864v-63.2272c0,-20.53748 16.64892,-37.1864 37.1864,-37.1864h63.2272c20.53748,0 37.1864,16.64892 37.1864,37.1864v63.2272c0,20.53748 -16.64892,37.1864 -37.1864,37.1864z" fill="none"></path><path d="M44.0664,165.12c-20.53748,0 -37.1864,-16.64892 -37.1864,-37.1864v-83.8672c0,-20.53748 16.64892,-37.1864 37.1864,-37.1864h83.8672c20.53748,0 37.1864,16.64892 37.1864,37.1864v83.8672c0,20.53748 -16.64892,37.1864 -37.1864,37.1864z" fill="none"></path><path d="M50.9464,158.24c-20.53748,0 -37.1864,-16.64892 -37.1864,-37.1864v-70.1072c0,-20.53748 16.64892,-37.1864 37.1864,-37.1864h70.1072c20.53748,0 37.1864,16.64892 37.1864,37.1864v70.1072c0,20.53748 -16.64892,37.1864 -37.1864,37.1864z" fill="none"></path><path d="M44.0664,165.12c-20.53748,0 -37.1864,-16.64892 -37.1864,-37.1864v-83.8672c0,-20.53748 16.64892,-37.1864 37.1864,-37.1864h83.8672c20.53748,0 37.1864,16.64892 37.1864,37.1864v83.8672c0,20.53748 -16.64892,37.1864 -37.1864,37.1864z" fill="none"></path><path d="M47.5064,161.68c-20.53748,0 -37.1864,-16.64892 -37.1864,-37.1864v-76.9872c0,-20.53748 16.64892,-37.1864 37.1864,-37.1864h76.9872c20.53748,0 37.1864,16.64892 37.1864,37.1864v76.9872c0,20.53748 -16.64892,37.1864 -37.1864,37.1864z" fill="none"></path><path d="M44.0664,165.12c-20.53748,0 -37.1864,-16.64892 -37.1864,-37.1864v-83.8672c0,-20.53748 16.64892,-37.1864 37.1864,-37.1864h83.8672c20.53748,0 37.1864,16.64892 37.1864,37.1864v83.8672c0,20.53748 -16.64892,37.1864 -37.1864,37.1864z" fill="none"></path><path d="M50.9464,158.24c-20.53748,0 -37.1864,-16.64892 -37.1864,-37.1864v-70.1072c0,-20.53748 16.64892,-37.1864 37.1864,-37.1864h70.1072c20.53748,0 37.1864,16.64892 37.1864,37.1864v70.1072c0,20.53748 -16.64892,37.1864 -37.1864,37.1864z" fill="none"></path><path d="M47.2312,165.12c-22.28535,0 -40.3512,-18.06585 -40.3512,-40.3512v-77.5376c0,-22.28535 18.06585,-40.3512 40.3512,-40.3512h77.5376c22.28535,0 40.3512,18.06585 40.3512,40.3512v77.5376c0,22.28535 -18.06585,40.3512 -40.3512,40.3512z" fill="none"></path><path d="M54.1112,158.24c-22.28535,0 -40.3512,-18.06585 -40.3512,-40.3512v-63.7776c0,-22.28535 18.06585,-40.3512 40.3512,-40.3512h63.7776c22.28535,0 40.3512,18.06585 40.3512,40.3512v63.7776c0,22.28535 -18.06585,40.3512 -40.3512,40.3512z" fill="none"></path><path d="M48.0224,165.12c-22.72232,0 -41.1424,-18.42008 -41.1424,-41.1424v-75.9552c0,-22.72232 18.42008,-41.1424 41.1424,-41.1424h75.9552c22.72232,0 41.1424,18.42008 41.1424,41.1424v75.9552c0,22.72232 -18.42008,41.1424 -41.1424,41.1424z" fill="none"></path><path d="M54.9024,158.24c-22.72232,0 -41.1424,-18.42008 -41.1424,-41.1424v-62.1952c0,-22.72232 18.42008,-41.1424 41.1424,-41.1424h62.1952c22.72232,0 41.1424,18.42008 41.1424,41.1424v62.1952c0,22.72232 -18.42008,41.1424 -41.1424,41.1424z" fill="none"></path><path d="M47.2312,165.12c-22.28535,0 -40.3512,-18.06585 -40.3512,-40.3512v-77.5376c0,-22.28535 18.06585,-40.3512 40.3512,-40.3512h77.5376c22.28535,0 40.3512,18.06585 40.3512,40.3512v77.5376c0,22.28535 -18.06585,40.3512 -40.3512,40.3512z" fill="none"></path><path d="M54.1112,158.24c-22.28535,0 -40.3512,-18.06585 -40.3512,-40.3512v-63.7776c0,-22.28535 18.06585,-40.3512 40.3512,-40.3512h63.7776c22.28535,0 40.3512,18.06585 40.3512,40.3512v63.7776c0,22.28535 -18.06585,40.3512 -40.3512,40.3512z" fill="none"></path><path d="M48.0224,165.12c-22.72232,0 -41.1424,-18.42008 -41.1424,-41.1424v-75.9552c0,-22.72232 18.42008,-41.1424 41.1424,-41.1424h75.9552c22.72232,0 41.1424,18.42008 41.1424,41.1424v75.9552c0,22.72232 -18.42008,41.1424 -41.1424,41.1424z" fill="none"></path><path d="M54.9024,158.24c-22.72232,0 -41.1424,-18.42008 -41.1424,-41.1424v-62.1952c0,-22.72232 18.42008,-41.1424 41.1424,-41.1424h62.1952c22.72232,0 41.1424,18.42008 41.1424,41.1424v62.1952c0,22.72232 -18.42008,41.1424 -41.1424,41.1424z" fill="none"></path><path d="M48.8136,165.12c-23.15929,0 -41.9336,-18.77431 -41.9336,-41.9336v-74.3728c0,-23.15929 18.77431,-41.9336 41.9336,-41.9336h74.3728c23.15929,0 41.9336,18.77431 41.9336,41.9336v74.3728c0,23.15929 -18.77431,41.9336 -41.9336,41.9336z" fill="none"></path><path d="M55.6936,158.24c-23.15929,0 -41.9336,-18.77431 -41.9336,-41.9336v-60.6128c0,-23.15929 18.77431,-41.9336 41.9336,-41.9336h60.6128c23.15929,0 41.9336,18.77431 41.9336,41.9336v60.6128c0,23.15929 -18.77431,41.9336 -41.9336,41.9336z" fill="none"></path><path d="M49.6048,165.12c-23.59626,0 -42.7248,-19.12854 -42.7248,-42.7248v-72.7904c0,-23.59626 19.12854,-42.7248 42.7248,-42.7248h72.7904c23.59626,0 42.7248,19.12854 42.7248,42.7248v72.7904c0,23.59626 -19.12854,42.7248 -42.7248,42.7248z" fill="none"></path><path d="M56.4848,158.24c-23.59626,0 -42.7248,-19.12854 -42.7248,-42.7248v-59.0304c0,-23.59626 19.12854,-42.7248 42.7248,-42.7248h59.0304c23.59626,0 42.7248,19.12854 42.7248,42.7248v59.0304c0,23.59626 -19.12854,42.7248 -42.7248,42.7248z" fill="none"></path><path d="M47.6268,169.42c-24.87866,0 -45.0468,-20.16814 -45.0468,-45.0468v-76.7464c0,-24.87866 20.16814,-45.0468 45.0468,-45.0468h76.7464c24.87866,0 45.0468,20.16814 45.0468,45.0468v76.7464c0,24.87866 -20.16814,45.0468 -45.0468,45.0468z" fill="none"></path><path d="M54.5068,162.54c-24.87866,0 -45.0468,-20.16814 -45.0468,-45.0468v-62.9864c0,-24.87866 20.16814,-45.0468 45.0468,-45.0468h62.9864c24.87866,0 45.0468,20.16814 45.0468,45.0468v62.9864c0,24.87866 -20.16814,45.0468 -45.0468,45.0468z" fill="none"></path><path d="M48.0224,168.56c-24.62218,0 -44.5824,-19.96022 -44.5824,-44.5824v-75.9552c0,-24.62218 19.96022,-44.5824 44.5824,-44.5824h75.9552c24.62218,0 44.5824,19.96022 44.5824,44.5824v75.9552c0,24.62218 -19.96022,44.5824 -44.5824,44.5824z" fill="none"></path><path d="M54.9024,161.68c-24.62218,0 -44.5824,-19.96022 -44.5824,-44.5824v-62.1952c0,-24.62218 19.96022,-44.5824 44.5824,-44.5824h62.1952c24.62218,0 44.5824,19.96022 44.5824,44.5824v62.1952c0,24.62218 -19.96022,44.5824 -44.5824,44.5824z" fill="none"></path><path d="M48.418,167.7c-24.3657,0 -44.118,-19.7523 -44.118,-44.118v-75.164c0,-24.3657 19.7523,-44.118 44.118,-44.118h75.164c24.3657,0 44.118,19.7523 44.118,44.118v75.164c0,24.3657 -19.7523,44.118 -44.118,44.118z" fill="none"></path><path d="M55.298,160.82c-24.3657,0 -44.118,-19.7523 -44.118,-44.118v-61.404c0,-24.3657 19.7523,-44.118 44.118,-44.118h61.404c24.3657,0 44.118,19.7523 44.118,44.118v61.404c0,24.3657 -19.7523,44.118 -44.118,44.118z" fill="none"></path><path d="M48.8136,166.84c-24.10922,0 -43.6536,-19.54438 -43.6536,-43.6536v-74.3728c0,-24.10922 19.54438,-43.6536 43.6536,-43.6536h74.3728c24.10922,0 43.6536,19.54438 43.6536,43.6536v74.3728c0,24.10922 -19.54438,43.6536 -43.6536,43.6536z" fill="none"></path><path d="M55.6936,159.96c-24.10922,0 -43.6536,-19.54438 -43.6536,-43.6536v-60.6128c0,-24.10922 19.54438,-43.6536 43.6536,-43.6536h60.6128c24.10922,0 43.6536,19.54438 43.6536,43.6536v60.6128c0,24.10922 -19.54438,43.6536 -43.6536,43.6536z" fill="none"></path><path d="M49.2092,165.98c-23.85274,0 -43.1892,-19.33646 -43.1892,-43.1892v-73.5816c0,-23.85274 19.33646,-43.1892 43.1892,-43.1892h73.5816c23.85274,0 43.1892,19.33646 43.1892,43.1892v73.5816c0,23.85274 -19.33646,43.1892 -43.1892,43.1892z" fill="none"></path><path d="M56.0892,159.1c-23.85274,0 -43.1892,-19.33646 -43.1892,-43.1892v-59.8216c0,-23.85274 19.33646,-43.1892 43.1892,-43.1892h59.8216c23.85274,0 43.1892,19.33646 43.1892,43.1892v59.8216c0,23.85274 -19.33646,43.1892 -43.1892,43.1892z" fill="none"></path><path d="M49.6048,165.12c-23.59626,0 -42.7248,-19.12854 -42.7248,-42.7248v-72.7904c0,-23.59626 19.12854,-42.7248 42.7248,-42.7248h72.7904c23.59626,0 42.7248,19.12854 42.7248,42.7248v72.7904c0,23.59626 -19.12854,42.7248 -42.7248,42.7248z" fill="none"></path><path d="M56.4848,158.24c-23.59626,0 -42.7248,-19.12854 -42.7248,-42.7248v-59.0304c0,-23.59626 19.12854,-42.7248 42.7248,-42.7248h59.0304c23.59626,0 42.7248,19.12854 42.7248,42.7248v59.0304c0,23.59626 -19.12854,42.7248 -42.7248,42.7248z" fill="none"></path><path d="M50.0004,164.26c-23.33977,0 -42.2604,-18.92063 -42.2604,-42.2604v-71.9992c0,-23.33977 18.92063,-42.2604 42.2604,-42.2604h71.9992c23.33977,0 42.2604,18.92063 42.2604,42.2604v71.9992c0,23.33977 -18.92063,42.2604 -42.2604,42.2604z" fill="none"></path><path d="M56.8804,157.38c-23.33977,0 -42.2604,-18.92063 -42.2604,-42.2604v-58.2392c0,-23.33977 18.92063,-42.2604 42.2604,-42.2604h58.2392c23.33977,0 42.2604,18.92063 42.2604,42.2604v58.2392c0,23.33977 -18.92063,42.2604 -42.2604,42.2604z" fill="none"></path><path d="M49.6048,165.12c-23.59626,0 -42.7248,-19.12854 -42.7248,-42.7248v-72.7904c0,-23.59626 19.12854,-42.7248 42.7248,-42.7248h72.7904c23.59626,0 42.7248,19.12854 42.7248,42.7248v72.7904c0,23.59626 -19.12854,42.7248 -42.7248,42.7248z" fill="none"></path><path d="M56.4848,158.24c-23.59626,0 -42.7248,-19.12854 -42.7248,-42.7248v-59.0304c0,-23.59626 19.12854,-42.7248 42.7248,-42.7248h59.0304c23.59626,0 42.7248,19.12854 42.7248,42.7248v59.0304c0,23.59626 -19.12854,42.7248 -42.7248,42.7248z" fill="none"></path><path d="M49.2092,165.98c-23.85274,0 -43.1892,-19.33646 -43.1892,-43.1892v-73.5816c0,-23.85274 19.33646,-43.1892 43.1892,-43.1892h73.5816c23.85274,0 43.1892,19.33646 43.1892,43.1892v73.5816c0,23.85274 -19.33646,43.1892 -43.1892,43.1892z" fill="none"></path><path d="M56.0892,159.1c-23.85274,0 -43.1892,-19.33646 -43.1892,-43.1892v-59.8216c0,-23.85274 19.33646,-43.1892 43.1892,-43.1892h59.8216c23.85274,0 43.1892,19.33646 43.1892,43.1892v59.8216c0,23.85274 -19.33646,43.1892 -43.1892,43.1892z" fill="none"></path><path d="M48.8136,166.84c-24.10922,0 -43.6536,-19.54438 -43.6536,-43.6536v-74.3728c0,-24.10922 19.54438,-43.6536 43.6536,-43.6536h74.3728c24.10922,0 43.6536,19.54438 43.6536,43.6536v74.3728c0,24.10922 -19.54438,43.6536 -43.6536,43.6536z" fill="none"></path><path d="M55.6936,159.96c-24.10922,0 -43.6536,-19.54438 -43.6536,-43.6536v-60.6128c0,-24.10922 19.54438,-43.6536 43.6536,-43.6536h60.6128c24.10922,0 43.6536,19.54438 43.6536,43.6536v60.6128c0,24.10922 -19.54438,43.6536 -43.6536,43.6536z" fill="none"></path><path d="M48.8136,166.84c-24.10922,0 -43.6536,-19.54438 -43.6536,-43.6536v-74.3728c0,-24.10922 19.54438,-43.6536 43.6536,-43.6536h74.3728c24.10922,0 43.6536,19.54438 43.6536,43.6536v74.3728c0,24.10922 -19.54438,43.6536 -43.6536,43.6536z" fill="none"></path><path d="M55.6936,159.96c-24.10922,0 -43.6536,-19.54438 -43.6536,-43.6536v-60.6128c0,-24.10922 19.54438,-43.6536 43.6536,-43.6536h60.6128c24.10922,0 43.6536,19.54438 43.6536,43.6536v60.6128c0,24.10922 -19.54438,43.6536 -43.6536,43.6536z" fill="none"></path><path d="M48.8136,166.84c-24.10922,0 -43.6536,-19.54438 -43.6536,-43.6536v-74.3728c0,-24.10922 19.54438,-43.6536 43.6536,-43.6536h74.3728c24.10922,0 43.6536,19.54438 43.6536,43.6536v74.3728c0,24.10922 -19.54438,43.6536 -43.6536,43.6536z" fill="none"></path><path d="M55.6936,159.96c-24.10922,0 -43.6536,-19.54438 -43.6536,-43.6536v-60.6128c0,-24.10922 19.54438,-43.6536 43.6536,-43.6536h60.6128c24.10922,0 43.6536,19.54438 43.6536,43.6536v60.6128c0,24.10922 -19.54438,43.6536 -43.6536,43.6536z" fill="none"></path><path d="M48.8136,166.84c-24.10922,0 -43.6536,-19.54438 -43.6536,-43.6536v-74.3728c0,-24.10922 19.54438,-43.6536 43.6536,-43.6536h74.3728c24.10922,0 43.6536,19.54438 43.6536,43.6536v74.3728c0,24.10922 -19.54438,43.6536 -43.6536,43.6536z" fill="none"></path><path d="M55.6936,159.96c-24.10922,0 -43.6536,-19.54438 -43.6536,-43.6536v-60.6128c0,-24.10922 19.54438,-43.6536 43.6536,-43.6536h60.6128c24.10922,0 43.6536,19.54438 43.6536,43.6536v60.6128c0,24.10922 -19.54438,43.6536 -43.6536,43.6536z" fill="none"></path><path d="M86,172c-47.49649,0 -86,-38.50351 -86,-86v0c0,-47.49649 38.50351,-86 86,-86v0c47.49649,0 86,38.50351 86,86v0c0,47.49649 -38.50351,86 -86,86z" fill="none"></path><path d="M86,168.56c-45.59663,0 -82.56,-36.96337 -82.56,-82.56v0c0,-45.59663 36.96337,-82.56 82.56,-82.56v0c45.59663,0 82.56,36.96337 82.56,82.56v0c0,45.59663 -36.96337,82.56 -82.56,82.56z" fill="none"></path><path d="M86,172c-47.49649,0 -86,-38.50351 -86,-86v0c0,-47.49649 38.50351,-86 86,-86v0c47.49649,0 86,38.50351 86,86v0c0,47.49649 -38.50351,86 -86,86z" fill="none"></path><path d="M86,168.56c-45.59663,0 -82.56,-36.96337 -82.56,-82.56v0c0,-45.59663 36.96337,-82.56 82.56,-82.56v0c45.59663,0 82.56,36.96337 82.56,82.56v0c0,45.59663 -36.96337,82.56 -82.56,82.56z" fill="none"></path><path d="M86,172c-47.49649,0 -86,-38.50351 -86,-86v0c0,-47.49649 38.50351,-86 86,-86v0c47.49649,0 86,38.50351 86,86v0c0,47.49649 -38.50351,86 -86,86z" fill="none"></path><path d="M86,168.56c-45.59663,0 -82.56,-36.96337 -82.56,-82.56v0c0,-45.59663 36.96337,-82.56 82.56,-82.56v0c45.59663,0 82.56,36.96337 82.56,82.56v0c0,45.59663 -36.96337,82.56 -82.56,82.56z" fill="none"></path><path d="M86,172c-47.49649,0 -86,-38.50351 -86,-86v0c0,-47.49649 38.50351,-86 86,-86v0c47.49649,0 86,38.50351 86,86v0c0,47.49649 -38.50351,86 -86,86z" fill="none"></path><path d="M86,168.56c-45.59663,0 -82.56,-36.96337 -82.56,-82.56v0c0,-45.59663 36.96337,-82.56 82.56,-82.56v0c45.59663,0 82.56,36.96337 82.56,82.56v0c0,45.59663 -36.96337,82.56 -82.56,82.56z" fill="none"></path><path d="M86,172c-47.49649,0 -86,-38.50351 -86,-86v0c0,-47.49649 38.50351,-86 86,-86v0c47.49649,0 86,38.50351 86,86v0c0,47.49649 -38.50351,86 -86,86z" fill="none"></path><path d="M86,168.56c-45.59663,0 -82.56,-36.96337 -82.56,-82.56v0c0,-45.59663 36.96337,-82.56 82.56,-82.56v0c45.59663,0 82.56,36.96337 82.56,82.56v0c0,45.59663 -36.96337,82.56 -82.56,82.56z" fill="none"></path><path d="M86,172c-47.49649,0 -86,-38.50351 -86,-86v0c0,-47.49649 38.50351,-86 86,-86v0c47.49649,0 86,38.50351 86,86v0c0,47.49649 -38.50351,86 -86,86z" fill="none"></path><path d="M86,168.56c-45.59663,0 -82.56,-36.96337 -82.56,-82.56v0c0,-45.59663 36.96337,-82.56 82.56,-82.56v0c45.59663,0 82.56,36.96337 82.56,82.56v0c0,45.59663 -36.96337,82.56 -82.56,82.56z" fill="none"></path><path d="M86,172c-47.49649,0 -86,-38.50351 -86,-86v0c0,-47.49649 38.50351,-86 86,-86v0c47.49649,0 86,38.50351 86,86v0c0,47.49649 -38.50351,86 -86,86z" fill="none"></path><path d="M86,168.56c-45.59663,0 -82.56,-36.96337 -82.56,-82.56v0c0,-45.59663 36.96337,-82.56 82.56,-82.56v0c45.59663,0 82.56,36.96337 82.56,82.56v0c0,45.59663 -36.96337,82.56 -82.56,82.56z" fill="none"></path><path d="M86,172c-47.49649,0 -86,-38.50351 -86,-86v0c0,-47.49649 38.50351,-86 86,-86v0c47.49649,0 86,38.50351 86,86v0c0,47.49649 -38.50351,86 -86,86z" fill="none"></path><path d="M86,168.56c-45.59663,0 -82.56,-36.96337 -82.56,-82.56v0c0,-45.59663 36.96337,-82.56 82.56,-82.56v0c45.59663,0 82.56,36.96337 82.56,82.56v0c0,45.59663 -36.96337,82.56 -82.56,82.56z" fill="none"></path><path d="M86,172c-47.49649,0 -86,-38.50351 -86,-86v0c0,-47.49649 38.50351,-86 86,-86v0c47.49649,0 86,38.50351 86,86v0c0,47.49649 -38.50351,86 -86,86z" fill="none"></path><path d="M86,168.56c-45.59663,0 -82.56,-36.96337 -82.56,-82.56v0c0,-45.59663 36.96337,-82.56 82.56,-82.56v0c45.59663,0 82.56,36.96337 82.56,82.56v0c0,45.59663 -36.96337,82.56 -82.56,82.56z" fill="none"></path><path d="M86,172c-47.49649,0 -86,-38.50351 -86,-86v0c0,-47.49649 38.50351,-86 86,-86v0c47.49649,0 86,38.50351 86,86v0c0,47.49649 -38.50351,86 -86,86z" fill="none"></path><path d="M86,168.56c-45.59663,0 -82.56,-36.96337 -82.56,-82.56v0c0,-45.59663 36.96337,-82.56 82.56,-82.56v0c45.59663,0 82.56,36.96337 82.56,82.56v0c0,45.59663 -36.96337,82.56 -82.56,82.56z" fill="none"></path><path d="M86,172c-47.49649,0 -86,-38.50351 -86,-86v0c0,-47.49649 38.50351,-86 86,-86v0c47.49649,0 86,38.50351 86,86v0c0,47.49649 -38.50351,86 -86,86z" fill="none"></path><path d="M86,168.56c-45.59663,0 -82.56,-36.96337 -82.56,-82.56v0c0,-45.59663 36.96337,-82.56 82.56,-82.56v0c45.59663,0 82.56,36.96337 82.56,82.56v0c0,45.59663 -36.96337,82.56 -82.56,82.56z" fill="none"></path><path d="M86,172c-47.49649,0 -86,-38.50351 -86,-86v0c0,-47.49649 38.50351,-86 86,-86v0c47.49649,0 86,38.50351 86,86v0c0,47.49649 -38.50351,86 -86,86z" fill="none"></path><path d="M86,168.56c-45.59663,0 -82.56,-36.96337 -82.56,-82.56v0c0,-45.59663 36.96337,-82.56 82.56,-82.56v0c45.59663,0 82.56,36.96337 82.56,82.56v0c0,45.59663 -36.96337,82.56 -82.56,82.56z" fill="none"></path><path d="M86,172c-47.49649,0 -86,-38.50351 -86,-86v0c0,-47.49649 38.50351,-86 86,-86v0c47.49649,0 86,38.50351 86,86v0c0,47.49649 -38.50351,86 -86,86z" fill="none"></path><path d="M86,168.56c-45.59663,0 -82.56,-36.96337 -82.56,-82.56v0c0,-45.59663 36.96337,-82.56 82.56,-82.56v0c45.59663,0 82.56,36.96337 82.56,82.56v0c0,45.59663 -36.96337,82.56 -82.56,82.56z" fill="none"></path><path d="M86,172c-47.49649,0 -86,-38.50351 -86,-86v0c0,-47.49649 38.50351,-86 86,-86v0c47.49649,0 86,38.50351 86,86v0c0,47.49649 -38.50351,86 -86,86z" fill="none"></path><path d="M86,168.56c-45.59663,0 -82.56,-36.96337 -82.56,-82.56v0c0,-45.59663 36.96337,-82.56 82.56,-82.56v0c45.59663,0 82.56,36.96337 82.56,82.56v0c0,45.59663 -36.96337,82.56 -82.56,82.56z" fill="none"></path><path d="M86,172c-47.49649,0 -86,-38.50351 -86,-86v0c0,-47.49649 38.50351,-86 86,-86v0c47.49649,0 86,38.50351 86,86v0c0,47.49649 -38.50351,86 -86,86z" fill="none"></path><path d="M86,168.56c-45.59663,0 -82.56,-36.96337 -82.56,-82.56v0c0,-45.59663 36.96337,-82.56 82.56,-82.56v0c45.59663,0 82.56,36.96337 82.56,82.56v0c0,45.59663 -36.96337,82.56 -82.56,82.56z" fill="none"></path><path d="M86,172c-47.49649,0 -86,-38.50351 -86,-86v0c0,-47.49649 38.50351,-86 86,-86v0c47.49649,0 86,38.50351 86,86v0c0,47.49649 -38.50351,86 -86,86z" fill="none"></path><path d="M86,168.56c-45.59663,0 -82.56,-36.96337 -82.56,-82.56v0c0,-45.59663 36.96337,-82.56 82.56,-82.56v0c45.59663,0 82.56,36.96337 82.56,82.56v0c0,45.59663 -36.96337,82.56 -82.56,82.56z" fill="none"></path><path d="M86,172c-47.49649,0 -86,-38.50351 -86,-86v0c0,-47.49649 38.50351,-86 86,-86v0c47.49649,0 86,38.50351 86,86v0c0,47.49649 -38.50351,86 -86,86z" fill="none"></path><path d="M86,168.56c-45.59663,0 -82.56,-36.96337 -82.56,-82.56v0c0,-45.59663 36.96337,-82.56 82.56,-82.56v0c45.59663,0 82.56,36.96337 82.56,82.56v0c0,45.59663 -36.96337,82.56 -82.56,82.56z" fill="none"></path><path d="M86,171.14c-47.02152,0 -85.14,-38.11848 -85.14,-85.14v0c0,-47.02152 38.11848,-85.14 85.14,-85.14h0c47.02152,0 85.14,38.11848 85.14,85.14v0c0,47.02152 -38.11848,85.14 -85.14,85.14z" fill="none"></path><path d="M86,167.7c-45.12166,0 -81.7,-36.57834 -81.7,-81.7v0c0,-45.12166 36.57834,-81.7 81.7,-81.7h0c45.12166,0 81.7,36.57834 81.7,81.7v0c0,45.12166 -36.57834,81.7 -81.7,81.7z" fill="none"></path><path d="M86,169.42c-46.07159,0 -83.42,-37.34841 -83.42,-83.42v0c0,-46.07159 37.34841,-83.42 83.42,-83.42h0c46.07159,0 83.42,37.34841 83.42,83.42v0c0,46.07159 -37.34841,83.42 -83.42,83.42z" fill="none"></path><path d="M86,165.98c-44.17173,0 -79.98,-35.80827 -79.98,-79.98v0c0,-44.17173 35.80827,-79.98 79.98,-79.98h0c44.17173,0 79.98,35.80827 79.98,79.98v0c0,44.17173 -35.80827,79.98 -79.98,79.98z" fill="none"></path><path d="M86,168.56c-45.59663,0 -82.56,-36.96337 -82.56,-82.56v0c0,-45.59663 36.96337,-82.56 82.56,-82.56v0c45.59663,0 82.56,36.96337 82.56,82.56v0c0,45.59663 -36.96337,82.56 -82.56,82.56z" fill="none"></path><path d="M86,165.12c-43.69677,0 -79.12,-35.42323 -79.12,-79.12v0c0,-43.69677 35.42323,-79.12 79.12,-79.12v0c43.69677,0 79.12,35.42323 79.12,79.12v0c0,43.69677 -35.42323,79.12 -79.12,79.12z" fill="none"></path><path d="M86,167.7c-45.12166,0 -81.7,-36.57834 -81.7,-81.7v0c0,-45.12166 36.57834,-81.7 81.7,-81.7h0c45.12166,0 81.7,36.57834 81.7,81.7v0c0,45.12166 -36.57834,81.7 -81.7,81.7z" fill="none"></path><path d="M86,164.26c-43.2218,0 -78.26,-35.0382 -78.26,-78.26v0c0,-43.2218 35.0382,-78.26 78.26,-78.26h0c43.2218,0 78.26,35.0382 78.26,78.26v0c0,43.2218 -35.0382,78.26 -78.26,78.26z" fill="none"></path><path d="M86,166.84c-44.6467,0 -80.84,-36.1933 -80.84,-80.84v0c0,-44.6467 36.1933,-80.84 80.84,-80.84v0c44.6467,0 80.84,36.1933 80.84,80.84v0c0,44.6467 -36.1933,80.84 -80.84,80.84z" fill="none"></path><path d="M86,163.4c-42.74684,0 -77.4,-34.65316 -77.4,-77.4v0c0,-42.74684 34.65316,-77.4 77.4,-77.4v0c42.74684,0 77.4,34.65316 77.4,77.4v0c0,42.74684 -34.65316,77.4 -77.4,77.4z" fill="none"></path><path d="M86,165.98c-44.17173,0 -79.98,-35.80827 -79.98,-79.98v0c0,-44.17173 35.80827,-79.98 79.98,-79.98h0c44.17173,0 79.98,35.80827 79.98,79.98v0c0,44.17173 -35.80827,79.98 -79.98,79.98z" fill="none"></path><path d="M86,162.54c-42.27187,0 -76.54,-34.26813 -76.54,-76.54v0c0,-42.27187 34.26813,-76.54 76.54,-76.54h0c42.27187,0 76.54,34.26813 76.54,76.54v0c0,42.27187 -34.26813,76.54 -76.54,76.54z" fill="none"></path><path d="M86,165.12c-43.69677,0 -79.12,-35.42323 -79.12,-79.12v0c0,-43.69677 35.42323,-79.12 79.12,-79.12v0c43.69677,0 79.12,35.42323 79.12,79.12v0c0,43.69677 -35.42323,79.12 -79.12,79.12z" fill="none"></path><path d="M86,161.68c-41.79691,0 -75.68,-33.88309 -75.68,-75.68v0c0,-41.79691 33.88309,-75.68 75.68,-75.68v0c41.79691,0 75.68,33.88309 75.68,75.68v0c0,41.79691 -33.88309,75.68 -75.68,75.68z" fill="none"></path><path d="M86,164.26c-43.2218,0 -78.26,-35.0382 -78.26,-78.26v0c0,-43.2218 35.0382,-78.26 78.26,-78.26h0c43.2218,0 78.26,35.0382 78.26,78.26v0c0,43.2218 -35.0382,78.26 -78.26,78.26z" fill="none"></path><path d="M86,160.82c-41.32194,0 -74.82,-33.49806 -74.82,-74.82v0c0,-41.32194 33.49806,-74.82 74.82,-74.82h0c41.32194,0 74.82,33.49806 74.82,74.82v0c0,41.32194 -33.49806,74.82 -74.82,74.82z" fill="none"></path><path d="M86,163.4c-42.74684,0 -77.4,-34.65316 -77.4,-77.4v0c0,-42.74684 34.65316,-77.4 77.4,-77.4v0c42.74684,0 77.4,34.65316 77.4,77.4v0c0,42.74684 -34.65316,77.4 -77.4,77.4z" fill="none"></path><path d="M86,159.96c-40.84698,0 -73.96,-33.11302 -73.96,-73.96v0c0,-40.84698 33.11302,-73.96 73.96,-73.96v0c40.84698,0 73.96,33.11302 73.96,73.96v0c0,40.84698 -33.11302,73.96 -73.96,73.96z" fill="none"></path><path d="M86,163.4c-42.74684,0 -77.4,-34.65316 -77.4,-77.4v0c0,-42.74684 34.65316,-77.4 77.4,-77.4v0c42.74684,0 77.4,34.65316 77.4,77.4v0c0,42.74684 -34.65316,77.4 -77.4,77.4z" fill="none"></path><path d="M86,156.52c-38.94712,0 -70.52,-31.57288 -70.52,-70.52v0c0,-38.94712 31.57288,-70.52 70.52,-70.52v0c38.94712,0 70.52,31.57288 70.52,70.52v0c0,38.94712 -31.57288,70.52 -70.52,70.52z" fill="none"></path><path d="M86,163.4c-42.74684,0 -77.4,-34.65316 -77.4,-77.4v0c0,-42.74684 34.65316,-77.4 77.4,-77.4v0c42.74684,0 77.4,34.65316 77.4,77.4v0c0,42.74684 -34.65316,77.4 -77.4,77.4z" fill="none"></path><path d="M86,156.52c-38.94712,0 -70.52,-31.57288 -70.52,-70.52v0c0,-38.94712 31.57288,-70.52 70.52,-70.52v0c38.94712,0 70.52,31.57288 70.52,70.52v0c0,38.94712 -31.57288,70.52 -70.52,70.52z" fill="none"></path></g></svg>